<svg enable-background="new 0 0 256 256" viewBox="0 0 256 256" xmlns="http://www.w3.org/2000/svg"><path d="m181.597 248.031h-107.194v-27.513c0-9.627 7.804-17.431 17.431-17.431h72.334c9.627 0 17.431 7.804 17.431 17.431v27.513z" fill="#f9a7a7"/><path d="m125.388 206.417c-7.941 0-15.449-1.814-22.143-5.031v2.423c0 10.34 8.382 18.722 18.722 18.722h8.063c10.34 0 18.722-8.382 18.722-18.722v-3.026c-6.994 3.596-14.937 5.634-23.364 5.634z" fill="#f9cfcf"/><path d="m176.237 136.874c-9.078-6.536-18.601-11.802-20.477-26.214l-.365-1.208c-17.684 19.467-56.352 26.665-80.048 13.762-.52 2.89-.806 5.86-.806 8.898v4.761c-.108-.002-.213-.016-.321-.016-8.568 0-15.513 6.883-15.513 15.373s6.946 15.373 15.513 15.373c.563 0 1.117-.033 1.664-.091 5.247 22.292 25.412 38.904 49.505 38.904s44.258-16.612 49.505-38.904c.547.058 1.102.091 1.664.091 8.568 0 15.513-6.883 15.513-15.373 0-8.744-7.321-15.582-15.834-15.356z" fill="#f9cfcf"/><g fill="#3762cc"><path d="m125.388 208.417c-24.121 0-44.872-15.875-51.041-38.813-.043.001-.086.001-.129.001-9.657 0-17.513-7.794-17.513-17.374 0-9.019 6.962-16.453 15.834-17.294v-2.824c0-3.047.282-6.159.838-9.252.113-.633.524-1.172 1.104-1.45.579-.277 1.256-.26 1.821.047 22.52 12.265 60.238 5.774 77.611-13.35.485-.532 1.22-.768 1.92-.606.703.158 1.266.683 1.474 1.372l.365 1.207c.032.104.055.212.069.321 1.578 12.123 9.05 17.375 16.961 22.936.723.508 1.447 1.018 2.17 1.533 4.43.063 8.754 1.853 11.956 4.971 3.379 3.29 5.241 7.69 5.241 12.39 0 9.58-7.856 17.374-17.513 17.374-.043 0-.086 0-.129-.001-6.167 22.937-26.918 38.812-51.039 38.812zm-49.504-42.904c.918 0 1.731.631 1.945 1.542 5.178 21.998 24.734 37.362 47.559 37.362s42.381-15.364 47.559-37.362c.231-.981 1.15-1.646 2.16-1.53.499.053.987.08 1.452.08 7.451 0 13.513-6 13.513-13.374 0-3.61-1.432-6.993-4.031-9.524-2.6-2.531-6.162-3.908-9.75-3.833-.433.038-.867-.12-1.222-.376-.887-.639-1.777-1.264-2.665-1.888-7.737-5.438-15.721-11.05-18.196-23.106-8.848 8.295-21.822 14.393-36.235 16.938-14.957 2.643-29.736 1.105-41.064-4.197-.245 1.97-.368 3.935-.368 5.869v4.762c0 .54-.218 1.057-.605 1.434-.387.376-.904.583-1.449.565-.078-.002-.154-.007-.23-.012-.001 0-.004 0-.006 0-7.486 0-13.543 5.997-13.543 13.369 0 7.374 6.062 13.374 13.513 13.374.471 0 .946-.026 1.452-.08.069-.009.14-.013.211-.013z"/><path d="m125.399 189.938c-3.497 0-6.752-1.26-8.933-3.456-1.657-1.671-2.569-3.778-2.569-5.936 0-1.104.896-2 2-2s2 .896 2 2c0 1.11.487 2.188 1.409 3.118 1.413 1.424 3.69 2.273 6.093 2.273 2.417 0 4.625-.829 6.059-2.273.922-.93 1.409-2.008 1.409-3.118 0-1.104.896-2 2-2s2 .896 2 2c0 2.157-.913 4.265-2.569 5.935-2.18 2.198-5.423 3.457-8.899 3.457z"/><path d="m100.235 167.919c-3.385 0-6.139-2.753-6.139-6.138v-10.23c0-3.385 2.754-6.138 6.139-6.138 3.384 0 6.138 2.754 6.138 6.138v10.23c-.001 3.385-2.754 6.138-6.138 6.138z"/><path d="m150.53 167.919c-3.385 0-6.139-2.753-6.139-6.138v-10.23c0-3.385 2.754-6.138 6.139-6.138 3.384 0 6.138 2.754 6.138 6.138v10.23c0 3.385-2.754 6.138-6.138 6.138z"/></g><path d="m64.429 114.956c-.981 5.183-1.151 10.534-.425 15.86l1.215 8.909c2.54-1.798 5.641-2.867 9-2.867.108 0 .213.014.321.016v-4.762c0-3.038.291-6.006.811-8.895-4.526-2.464-8.112-5.371-10.922-8.261z" fill="#4671c6"/><path d="m65.218 141.725c-.27 0-.541-.055-.796-.165-.642-.279-1.091-.872-1.185-1.564l-1.214-8.909c-.745-5.465-.597-11.017.441-16.502.139-.733.674-1.328 1.389-1.543.716-.218 1.49-.014 2.01.521 3.033 3.12 6.547 5.777 10.444 7.898.757.412 1.165 1.263 1.012 2.111-.517 2.871-.779 5.744-.779 8.541v4.762c0 .54-.218 1.057-.605 1.434-.387.376-.904.583-1.449.565-.078-.002-.154-.007-.23-.012-.005 0-.011 0-.017 0-2.854 0-5.56.863-7.865 2.496-.344.242-.749.367-1.156.367zm.622-22.684c-.421 3.842-.374 7.696.146 11.504l.812 5.955c1.809-.846 3.745-1.374 5.743-1.563v-2.824c0-2.575.204-5.206.608-7.842-2.613-1.523-5.058-3.272-7.309-5.23z" fill="#3762cc"/><path d="m175.282 93.996c-3.915-5.103-9.511-2.711-11.553-2.093-.168 5.127-1.971 9.913-5.039 13.477-1.026 1.45-2.137 2.803-3.301 4.083.203.651.372 1.195.371 1.196 1.87 14.362 11.32 19.621 20.477 26.214 2.788-.068 5.411.595 7.739 1.853l1.078-7.911c1.784-13.085-1.734-26.34-9.772-36.819z" fill="#4671c6"/><path d="m183.976 140.727c-.327 0-.654-.08-.951-.24-2.088-1.13-4.345-1.684-6.739-1.613-.446.03-.864-.122-1.217-.376-.877-.632-1.757-1.251-2.633-1.867-8.252-5.809-16.785-11.814-18.636-25.541l-.298-.961c-.211-.677-.069-1.485.408-2.01 1.194-1.313 2.225-2.587 3.149-3.893.037-.052.075-.102.117-.149 2.785-3.234 4.403-7.581 4.556-12.238.028-.856.599-1.601 1.419-1.849.153-.047.327-.104.521-.167 2.39-.782 8.739-2.855 13.198 2.956 8.304 10.826 12.01 24.788 10.167 38.308l-1.079 7.911c-.088.65-.491 1.216-1.076 1.513-.285.143-.596.216-.906.216zm-7.101-5.856c1.891.024 3.723.345 5.477.957l.721-5.283c1.7-12.469-1.719-25.347-9.378-35.331-2.317-3.021-5.314-2.644-8.053-1.818-.441 4.994-2.322 9.64-5.374 13.217-.802 1.128-1.672 2.229-2.642 3.346.046.169.081.314.105.444l.012-.001c1.576 12.105 8.721 17.134 16.994 22.957.711.5 1.425 1.002 2.138 1.512z" fill="#3762cc"/><path d="m156.747 74.377c-4.892-4.491-9.824-7.808-14.738-10.148h.003c-19.008-8.945-41.76-3.88-53.973 4.141l.015-.001c-15.826 9.415-26.844 24.394-30.536 29.882-.265.323-1.22 1.666-1.36 2.101-.319.995-.263 2.132.209 3.13 3.502 7.411 16.834 28.77 53.286 25.971 18.06-1.386 38.487-9.165 49.037-24.072 7.638-8.871 6.358-23.384-1.943-31.004z" fill="#4671c6"/><path d="m103.301 131.702c-33.104 0-45.587-20.688-48.742-27.365-.674-1.425-.785-3.101-.305-4.597.265-.824 1.327-2.249 1.634-2.65 4.04-5.996 15.066-20.821 30.987-30.347.021-.016.043-.031.066-.046 13.486-8.857 37.025-13.172 55.923-4.278.025.012.049.023.074.036 5.234 2.502 10.335 6.017 15.163 10.448 9.257 8.498 10.26 24.226 2.168 33.71-11.62 16.343-33.677 23.545-50.462 24.834-2.253.173-4.421.255-6.506.255zm-45.259-30.674c-.15.522-.103 1.103.132 1.6 2.893 6.121 14.373 25.07 45.167 25.072 1.974.001 4.023-.077 6.158-.241 15.907-1.222 36.753-7.966 47.558-23.233.036-.052.075-.102.117-.149 6.813-7.912 5.981-21.102-1.779-28.226-4.555-4.182-9.348-7.484-14.246-9.816-.018-.009-.036-.018-.054-.026-17.485-8.194-39.242-4.234-51.807 3.934-.066.053-.137.102-.212.146-15.348 9.132-26.022 23.519-29.9 29.28-.035.053-.073.104-.114.153-.22.268-.853 1.185-1.02 1.506z" fill="#3762cc"/><path d="m125.388 208.417c-24.121 0-44.872-15.875-51.041-38.813-.043.001-.086.001-.129.001-9.657 0-17.513-7.794-17.513-17.374 0-9.019 6.962-16.453 15.834-17.294v-2.824c0-3.047.282-6.159.838-9.252.113-.633.524-1.172 1.104-1.45.579-.277 1.256-.26 1.821.047 22.52 12.265 60.238 5.774 77.611-13.35.485-.532 1.22-.768 1.92-.606.703.158 1.266.683 1.474 1.372l.365 1.207c.032.104.055.212.069.321 1.578 12.123 9.05 17.375 16.961 22.936.723.508 1.447 1.018 2.17 1.533 4.43.063 8.754 1.853 11.956 4.971 3.379 3.29 5.241 7.69 5.241 12.39 0 9.58-7.856 17.374-17.513 17.374-.043 0-.086 0-.129-.001-6.167 22.937-26.918 38.812-51.039 38.812zm-49.504-42.904c.918 0 1.731.631 1.945 1.542 5.178 21.998 24.734 37.362 47.559 37.362s42.381-15.364 47.559-37.362c.231-.981 1.15-1.646 2.16-1.53.499.053.987.08 1.452.08 7.451 0 13.513-6 13.513-13.374 0-3.61-1.432-6.993-4.031-9.524-2.6-2.531-6.162-3.908-9.75-3.833-.433.038-.867-.12-1.222-.376-.887-.639-1.777-1.264-2.665-1.888-7.737-5.438-15.721-11.05-18.196-23.106-8.848 8.295-21.822 14.393-36.235 16.938-14.957 2.643-29.736 1.105-41.064-4.197-.245 1.97-.368 3.935-.368 5.869v4.762c0 .54-.218 1.057-.605 1.434-.387.376-.904.583-1.449.565-.078-.002-.154-.007-.23-.012-.001 0-.004 0-.006 0-7.486 0-13.543 5.997-13.543 13.369 0 7.374 6.062 13.374 13.513 13.374.471 0 .946-.026 1.452-.08.069-.009.14-.013.211-.013z" fill="#3762cc"/><path d="m181.597 250.031h-107.194c-1.104 0-2-.896-2-2v-27.513c0-10.714 8.717-19.431 19.431-19.431h9.435c.086-.571.416-1.083.913-1.396.582-.364 1.311-.406 1.931-.109 6.672 3.208 13.831 4.834 21.276 4.834 7.91 0 15.463-1.821 22.45-5.412.621-.32 1.361-.293 1.957.071.595.363.958 1.01.958 1.707v.305h13.414c10.714 0 19.43 8.717 19.43 19.431v27.513c-.001 1.105-.896 2-2.001 2zm-105.194-4h103.194v-25.513c0-8.509-6.922-15.431-15.43-15.431h-15.414c-.825 0-1.533-.499-1.838-1.212-6.737 2.979-14.118 4.541-21.526 4.541-7.143 0-14.042-1.385-20.549-4.121-.365.481-.943.792-1.594.792h-11.413c-8.508 0-15.431 6.922-15.431 15.431v25.513z" fill="#3762cc"/><path d="m137.619 37.504h-6.995c-.517-1.652-1.186-3.263-1.993-4.797l4.95-4.951c.667-.667 1.034-1.554 1.034-2.497s-.368-1.83-1.034-2.497l-7.164-7.164c-.667-.667-1.554-1.034-2.497-1.034s-1.829.367-2.496 1.034l-4.95 4.951c-1.534-.807-3.146-1.477-4.797-1.993 0-12.056 1.218-10.526-13.662-10.526-1.947 0-3.531 1.584-3.531 3.531v6.995c-1.651.516-3.263 1.186-4.797 1.993-5.213-5.213-5.563-5.985-7.447-5.985-.943 0-1.83.367-2.497 1.034-7.737 7.737-8.198 7.765-8.198 9.66 0 .943.368 1.83 1.034 2.497l4.95 4.951c-.807 1.534-1.476 3.145-1.993 4.797h-6.995c-1.947 0-3.531 1.584-3.531 3.531v10.131c0 1.947 1.584 3.531 3.531 3.531h6.995c.517 1.652 1.186 3.263 1.993 4.797l-4.95 4.951c-.667.667-1.034 1.553-1.034 2.496s.368 1.83 1.034 2.497l7.164 7.164c1.38 1.38 3.613 1.38 4.993 0l4.95-4.951c1.534.807 3.146 1.477 4.797 1.993v6.995c0 1.947 1.584 3.531 3.531 3.531 15.137 0 13.662 1.351 13.662-10.526 1.651-.516 3.263-1.186 4.797-1.993l4.95 4.951c.667.667 1.554 1.034 2.496 1.034 1.909 0 1.951-.488 9.66-8.198.667-.667 1.034-1.553 1.034-2.497 0-.943-.368-1.83-1.034-2.496l-4.95-4.951c.807-1.534 1.476-3.145 1.993-4.797h6.995c1.947 0 3.531-1.584 3.531-3.531v-10.131c.001-1.947-1.582-3.53-3.529-3.53zm-17.585 8.596c0 9.348-7.605 16.953-16.953 16.953s-16.953-7.605-16.953-16.953 7.605-16.953 16.953-16.953 16.953 7.605 16.953 16.953z" fill="#ffea94"/><path d="m103.08 27.884c-10.044 0-18.215 8.172-18.215 18.215 0 10.045 8.172 18.217 18.215 18.217 10.045 0 18.217-8.172 18.217-18.217 0-10.043-8.172-18.215-18.217-18.215zm0 27.766c-5.266 0-9.55-4.284-9.55-9.55s4.284-9.549 9.55-9.549 9.55 4.283 9.55 9.549-4.283 9.55-9.55 9.55z" fill="#a4c9ff"/><path d="m104.789 86.214c-.792 0-1.662-.009-2.619-.019-1.222-.013-2.6-.027-4.155-.027-3.05 0-5.531-2.48-5.531-5.53v-5.563c-.812-.298-1.612-.631-2.397-.997l-3.935 3.937c-2.157 2.156-5.666 2.155-7.821.001l-7.164-7.165c-1.045-1.045-1.62-2.434-1.62-3.911s.575-2.865 1.62-3.91l3.935-3.936c-.365-.785-.698-1.586-.996-2.397h-5.563c-3.05 0-5.531-2.481-5.531-5.531v-10.132c0-3.05 2.481-5.53 5.531-5.53h5.563c.298-.813.63-1.613.996-2.397l-3.936-3.937c-1.044-1.043-1.62-2.432-1.62-3.91 0-2.382.695-3.068 5.216-7.533.971-.959 2.146-2.12 3.568-3.541 1.044-1.045 2.434-1.62 3.911-1.62 2.386 0 3.344.974 6.517 4.202.398.404.839.854 1.333 1.352.784-.365 1.583-.697 2.394-.994v-5.563c0-3.05 2.481-5.53 5.531-5.53 1.682 0 3.157-.02 4.45-.037 5.449-.076 7.938-.105 9.645 1.593 1.638 1.631 1.618 4.054 1.581 8.454-.003.347-.006.708-.009 1.085.811.298 1.609.63 2.393.995l3.936-3.936c1.043-1.045 2.433-1.62 3.91-1.62 1.478 0 2.867.575 3.911 1.62l7.163 7.164c1.045 1.043 1.621 2.432 1.621 3.91s-.576 2.867-1.622 3.911l-3.934 3.936c.365.783.698 1.584.996 2.397h5.563c3.049 0 5.53 2.48 5.53 5.53v10.131c0 3.05-2.481 5.531-5.53 5.531h-5.563c-.298.813-.631 1.613-.996 2.397l3.935 3.936c1.045 1.045 1.621 2.434 1.621 3.91 0 1.478-.576 2.866-1.621 3.911-1.438 1.439-2.61 2.626-3.575 3.604-4.43 4.488-5.111 5.179-7.499 5.179-1.477 0-2.865-.575-3.91-1.618l-3.937-3.938c-.783.365-1.582.697-2.391.994.004.505.01.982.016 1.434.051 4.161.08 6.453-1.521 8.058-1.428 1.428-3.466 1.65-7.39 1.65zm-15.101-16.565c.317 0 .636.075.93.229 1.428.751 2.93 1.375 4.463 1.854.834.262 1.403 1.034 1.403 1.909v6.995c0 .844.687 1.53 1.531 1.53 1.57 0 2.962.015 4.197.027 3.545.034 6.61.068 7.135-.457.412-.413.382-2.838.353-5.184-.011-.87-.023-1.838-.023-2.912 0-.874.568-1.647 1.403-1.909 1.534-.479 3.036-1.104 4.463-1.854.775-.405 1.726-.263 2.345.356l4.951 4.951c.293.292.667.447 1.082.447.647 0 .715 0 4.652-3.989.971-.983 2.148-2.176 3.594-3.622.293-.294.449-.668.449-1.083 0-.414-.155-.788-.449-1.082l-4.95-4.95c-.62-.619-.764-1.57-.356-2.346.749-1.423 1.373-2.925 1.854-4.463.261-.834 1.034-1.402 1.909-1.402h6.995c.844 0 1.53-.687 1.53-1.531v-10.129c0-.844-.687-1.53-1.53-1.53h-6.995c-.875 0-1.647-.568-1.909-1.402-.482-1.54-1.106-3.042-1.854-4.463-.408-.775-.264-1.727.355-2.346l4.95-4.951c.294-.294.449-.668.449-1.082s-.155-.788-.448-1.081l-7.165-7.165c-.587-.587-1.579-.587-2.164 0l-4.951 4.95c-.62.619-1.57.762-2.345.356-1.427-.751-2.928-1.375-4.463-1.854-.834-.262-1.403-1.034-1.403-1.909 0-.928.007-1.775.014-2.55.022-2.644.043-5.141-.402-5.584-.515-.512-3.415-.476-6.77-.429-1.309.018-2.802.037-4.503.037-.844 0-1.531.687-1.531 1.53v6.995c0 .874-.568 1.647-1.402 1.908-1.534.48-3.036 1.104-4.464 1.855-.774.408-1.725.265-2.345-.356-.932-.932-1.709-1.723-2.368-2.393-2.955-3.006-3.035-3.006-3.664-3.006-.415 0-.79.155-1.083.448-1.428 1.429-2.609 2.595-3.585 3.559-4.026 3.977-4.026 4.044-4.026 4.688 0 .415.155.789.447 1.081l4.952 4.952c.619.619.763 1.57.355 2.346-.75 1.424-1.373 2.925-1.854 4.462-.261.835-1.034 1.403-1.909 1.403h-6.995c-.844 0-1.531.687-1.531 1.53v10.131c0 .845.687 1.531 1.531 1.531h6.995c.875 0 1.647.568 1.909 1.403.48 1.534 1.104 3.036 1.854 4.463.408.775.264 1.726-.356 2.345l-4.95 4.95c-.293.294-.448.668-.448 1.082 0 .415.155.789.448 1.083l7.164 7.164c.597.596 1.568.595 2.165 0l4.95-4.951c.384-.383.895-.585 1.414-.585z" fill="#3762cc"/><path d="m103.081 66.315c-11.147 0-20.215-9.068-20.215-20.216s9.068-20.216 20.215-20.216 20.216 9.068 20.216 20.216-9.069 20.216-20.216 20.216zm0-36.431c-8.941 0-16.215 7.274-16.215 16.216s7.274 16.216 16.215 16.216c8.942 0 16.216-7.274 16.216-16.216s-7.275-16.216-16.216-16.216zm0 27.765c-6.369 0-11.55-5.182-11.55-11.55s5.182-11.55 11.55-11.55 11.55 5.182 11.55 11.55-5.182 11.55-11.55 11.55zm0-19.099c-4.163 0-7.55 3.387-7.55 7.55s3.387 7.55 7.55 7.55 7.55-3.387 7.55-7.55-3.387-7.55-7.55-7.55z" fill="#3762cc"/><path d="m183.295 70.045c-.378-1.207-.867-2.385-1.457-3.506 3.81-3.81 4.374-4.066 4.374-5.443 0-.689-.269-1.337-.756-1.824l-5.235-5.235c-.487-.487-1.135-.756-1.825-.756-.689 0-1.337.268-1.824.756l-3.618 3.618c-1.121-.59-2.299-1.079-3.506-1.457v-5.112c0-1.423-1.157-2.58-2.58-2.58-11.065 0-9.984-.987-9.984 7.692-1.206.377-2.384.867-3.506 1.457-3.81-3.81-4.066-4.374-5.442-4.374-.689 0-1.337.268-1.825.756-5.584 5.584-5.991 5.657-5.991 7.06 0 .689.269 1.337.756 1.824l3.618 3.618c-.59 1.121-1.079 2.299-1.457 3.506-8.808 0-7.692-.892-7.692 9.984 0 1.423 1.157 2.58 2.58 2.58h5.112c.378 1.207.867 2.385 1.457 3.506-3.81 3.81-4.374 4.067-4.374 5.442 0 .689.269 1.337.756 1.824l5.235 5.235c.487.487 1.135.756 1.825.756.689 0 1.337-.268 1.824-.756l3.618-3.618c1.121.59 2.299 1.079 3.506 1.457v5.112c0 1.423 1.157 2.58 2.58 2.58 11.065 0 9.984.987 9.984-7.692 1.206-.377 2.384-.867 3.506-1.457l3.618 3.618c1.008 1.008 2.641 1.008 3.649 0 5.584-5.584 5.991-5.658 5.991-7.06 0-1.371-.553-1.621-4.374-5.442.59-1.121 1.079-2.299 1.457-3.506h5.112c1.423 0 2.58-1.158 2.58-2.58.001-11.064.988-9.983-7.692-9.983zm-7.739 6.282c0 6.832-5.558 12.389-12.389 12.389-6.832 0-12.389-5.558-12.389-12.389 0-6.832 5.558-12.389 12.389-12.389s12.389 5.558 12.389 12.389z" fill="#ffea94"/><path d="m163.167 63.015c-7.34 0-13.312 5.972-13.312 13.312 0 7.341 5.972 13.313 13.312 13.313 7.341 0 13.313-5.972 13.313-13.313 0-7.34-5.972-13.312-13.313-13.312zm0 20.291c-3.849 0-6.98-3.131-6.98-6.98s3.131-6.979 6.98-6.979c3.848 0 6.98 3.13 6.98 6.979-.001 3.849-3.132 6.98-6.98 6.98z" fill="#a4c9ff"/><path d="m164.412 106.182c-.583 0-1.22-.006-1.918-.014-.891-.009-1.896-.02-3.029-.02-2.525 0-4.58-2.055-4.58-4.58v-3.693c-.37-.143-.736-.295-1.098-.456l-2.611 2.612c-.866.865-2.016 1.342-3.239 1.342-1.224 0-2.374-.477-3.239-1.342l-5.235-5.235c-.865-.865-1.342-2.015-1.342-3.238 0-1.97.815-2.771 3.234-5.149.221-.217.459-.451.718-.706-.161-.36-.312-.725-.454-1.093h-3.693c-2.525 0-4.58-2.055-4.58-4.58 0-1.224-.014-2.298-.027-3.239-.053-4.017-.08-6.033 1.322-7.441 1.351-1.358 3.203-1.344 6.562-1.313.136.001.276.002.419.003.142-.367.293-.731.453-1.091l-2.612-2.611c-.865-.865-1.342-2.016-1.342-3.239 0-1.974.678-2.642 3.938-5.856.716-.706 1.585-1.563 2.64-2.617.865-.865 2.015-1.342 3.239-1.342 1.97 0 2.77.814 5.145 3.23.218.222.454.462.71.722.357-.159.719-.31 1.084-.451-.002-.233-.005-.458-.008-.675-.038-3.079-.062-4.938 1.269-6.271 1.412-1.416 3.384-1.4 7.703-1.351.891.009 1.896.02 3.029.02 2.525 0 4.58 2.055 4.58 4.58v3.693c.37.143.736.295 1.098.456l2.611-2.612c.866-.865 2.016-1.342 3.239-1.342s2.374.477 3.239 1.342l5.235 5.235c.865.865 1.342 2.015 1.342 3.238 0 1.97-.815 2.771-3.234 5.149-.221.217-.459.451-.717.706.159.357.31.72.45 1.084.233-.002.458-.005.674-.008 3.078-.037 4.939-.062 6.272 1.269 1.416 1.413 1.395 3.384 1.35 7.702-.009.892-.02 1.896-.02 3.03 0 2.525-2.055 4.58-4.58 4.58h-3.693c-.142.368-.293.732-.454 1.093.255.252.492.485.71.7 2.424 2.384 3.241 3.187 3.241 5.155 0 1.973-.678 2.642-3.937 5.856-.716.706-1.585 1.563-2.64 2.617-1.785 1.787-4.691 1.787-6.478 0l-2.612-2.612c-.359.16-.722.312-1.089.453.002.233.005.458.008.675.038 3.079.062 4.938-1.269 6.271-1.183 1.186-2.761 1.364-5.784 1.364zm-11.033-13.183c.317 0 .637.075.931.23 1.013.532 2.08.976 3.172 1.318.834.261 1.402 1.034 1.402 1.908v5.112c0 .32.26.58.58.58 1.148 0 2.167.011 3.07.02 2.163.023 4.213.044 4.808-.185.158-.481.14-1.957.122-3.387-.008-.64-.017-1.351-.017-2.141 0-.874.568-1.647 1.402-1.908 1.093-.343 2.16-.786 3.172-1.318.776-.408 1.726-.265 2.346.355l3.618 3.618c.226.227.594.227.821 0 1.062-1.063 1.938-1.926 2.659-2.638 1.509-1.488 2.6-2.564 2.759-2.893-.013.007-.014-.048-.014-.115 0-.062.002-.116-.008-.167-.115-.246-1.006-1.122-2.037-2.137-.488-.48-1.064-1.047-1.742-1.725-.62-.619-.764-1.57-.356-2.346.533-1.013.977-2.08 1.318-3.171.261-.835 1.034-1.403 1.909-1.403h5.112c.32 0 .58-.26.58-.58 0-1.149.011-2.168.02-3.071.022-2.163.043-4.212-.186-4.808-.481-.158-1.958-.141-3.387-.122-.64.008-1.35.017-2.14.017-.875 0-1.648-.568-1.909-1.403-.341-1.091-.785-2.158-1.318-3.171-.408-.775-.264-1.727.356-2.346.681-.682 1.259-1.25 1.75-1.731 1.028-1.011 1.916-1.883 2.038-2.155.002-.026 0-.08 0-.142 0-.159-.057-.297-.17-.41l-5.235-5.235c-.226-.225-.596-.225-.821 0l-3.617 3.618c-.62.619-1.572.763-2.346.355-1.013-.532-2.08-.976-3.172-1.318-.834-.261-1.402-1.034-1.402-1.908v-5.112c0-.32-.26-.58-.58-.58-1.148 0-2.167-.011-3.07-.02-2.164-.022-4.213-.045-4.808.185-.158.481-.14 1.957-.122 3.387.008.64.017 1.351.017 2.141 0 .874-.568 1.647-1.402 1.908-1.092.343-2.159.786-3.172 1.319-.776.407-1.726.264-2.345-.356-.683-.683-1.253-1.263-1.735-1.754-1.009-1.025-1.879-1.911-2.151-2.034-.025-.002-.08 0-.142 0-.16 0-.298.058-.411.17-1.062 1.063-1.938 1.926-2.659 2.638-1.51 1.488-2.601 2.564-2.76 2.893.012-.007.014.047.014.115 0 .16.057.298.17.411l3.618 3.617c.62.619.764 1.57.356 2.346-.532 1.011-.976 2.078-1.318 3.172-.261.834-1.034 1.402-1.909 1.402-.68 0-1.301-.005-1.869-.01-1.568-.016-3.185-.027-3.683.152-.221.571-.194 2.593-.168 4.55.013.957.027 2.048.027 3.292 0 .32.26.58.58.58h5.112c.875 0 1.647.568 1.909 1.402.342 1.094.786 2.161 1.318 3.172.408.775.264 1.727-.356 2.346-.681.682-1.259 1.25-1.75 1.731-1.028 1.011-1.916 1.883-2.038 2.155-.002.026 0 .08 0 .142 0 .159.057.297.17.41l5.235 5.235c.225.225.595.225.821 0l3.618-3.618c.385-.383.897-.584 1.415-.584z" fill="#3762cc"/><path d="m163.167 91.64c-8.443 0-15.312-6.869-15.312-15.313s6.869-15.313 15.312-15.313c8.444 0 15.313 6.869 15.313 15.313s-6.87 15.313-15.313 15.313zm0-26.625c-6.237 0-11.312 5.075-11.312 11.313s5.075 11.313 11.312 11.313c6.238 0 11.313-5.075 11.313-11.313s-5.076-11.313-11.313-11.313zm0 20.292c-4.951 0-8.979-4.028-8.979-8.979s4.028-8.979 8.979-8.979c4.952 0 8.98 4.028 8.98 8.979s-4.029 8.979-8.98 8.979zm0-13.959c-2.746 0-4.979 2.233-4.979 4.979s2.234 4.979 4.979 4.979c2.746 0 4.98-2.233 4.98-4.979s-2.234-4.979-4.98-4.979z" fill="#3762cc"/><path d="m128 233.734v4.684h-92.526v-12.738c17.651-7.041 37.034-8.518 55.548-4.23l33.352 7.723c2.123.491 3.626 2.382 3.626 4.561z" fill="#e0ebfc"/><path d="m128 233.734v4.684h92.526v-12.738c-17.651-7.041-37.034-8.518-55.548-4.23l-33.352 7.723c-2.123.491-3.626 2.382-3.626 4.561z" fill="#e0ebfc"/><path d="m128 248.031h-94.448c-2.655 0-4.807-2.152-4.807-4.807 0-2.655 2.152-4.807 4.807-4.807h94.448z" fill="#6bdddd"/><path d="m128 248.031h94.448c2.655 0 4.807-2.152 4.807-4.807 0-2.655-2.152-4.807-4.807-4.807h-94.448z" fill="#6bdddd"/><path d="m128 240.418h-92.525c-1.104 0-2-.896-2-2v-12.738c0-.818.499-1.555 1.259-1.857 18.119-7.227 37.739-8.722 56.74-4.321l33.352 7.724c3.046.705 5.174 3.382 5.174 6.509v4.685c0 1.102-.896 1.998-2 1.998zm-90.525-4h88.525v-2.685c0-1.255-.854-2.329-2.076-2.612l-33.353-7.724c-17.764-4.113-36.092-2.85-53.097 3.648v9.373z" fill="#3762cc"/><path d="m220.525 240.418h-92.525c-1.104 0-2-.896-2-2v-4.685c0-3.127 2.128-5.804 5.175-6.509l33.352-7.724c19.002-4.399 38.622-2.907 56.74 4.321.76.303 1.259 1.039 1.259 1.857v12.738c-.001 1.106-.896 2.002-2.001 2.002zm-90.525-4h88.525v-9.372c-17.005-6.499-35.333-7.761-53.097-3.648l-33.352 7.724c-1.223.283-2.077 1.357-2.077 2.612v2.684z" fill="#3762cc"/><path d="m128 250.031h-94.448c-3.753 0-6.807-3.054-6.807-6.807s3.053-6.807 6.807-6.807h94.448c1.104 0 2 .896 2 2v9.613c0 1.106-.896 2.001-2 2.001zm-94.448-9.613c-1.547 0-2.807 1.259-2.807 2.807s1.259 2.807 2.807 2.807h92.448v-5.613h-92.448z" fill="#3762cc"/><path d="m222.448 250.031h-94.448c-1.104 0-2-.896-2-2v-9.613c0-1.104.896-2 2-2h94.448c3.753 0 6.807 3.054 6.807 6.807s-3.053 6.806-6.807 6.806zm-92.448-4h92.448c1.547 0 2.807-1.259 2.807-2.807s-1.259-2.807-2.807-2.807h-92.448z" fill="#3762cc"/></svg>